<svg xmlns="http://www.w3.org/2000/svg" width="128" height="114.153" viewBox="0 0 128 114.153"><path d="M2.786-28.538h7.223C14.871-5.633,40.46,7.135,64.106,7.135c23.684,0,49.24-12.793,54.1-35.673h7.223a2.675,2.675,0,0,0,1.892-4.567L112.372-48.05a2.676,2.676,0,0,0-3.784,0L93.644-33.106a2.675,2.675,0,0,0,1.892,4.567h7.836C98.848-16.428,84.429-9.233,71.24-7.577V-49.942H82.834a2.676,2.676,0,0,0,2.675-2.675v-8.918a2.676,2.676,0,0,0-2.675-2.675H71.24v-1.22A21.412,21.412,0,0,0,85.509-85.612a21.474,21.474,0,0,0-21.1-21.4A21.4,21.4,0,0,0,42.7-85.615,21.412,21.412,0,0,0,56.971-65.431v1.22H45.377A2.676,2.676,0,0,0,42.7-61.536v8.918a2.676,2.676,0,0,0,2.675,2.675H56.971V-7.577c-13.14-1.65-27.606-8.847-32.132-20.961h7.836a2.675,2.675,0,0,0,1.892-4.567L19.623-48.05a2.676,2.676,0,0,0-3.784,0L.895-33.106a2.676,2.676,0,0,0,1.892,4.567ZM64.106-92.749a7.143,7.143,0,0,1,7.135,7.135,7.143,7.143,0,0,1-7.135,7.135,7.143,7.143,0,0,1-7.135-7.135A7.143,7.143,0,0,1,64.106-92.749Z" transform="translate(-0.106 107.019)" fill="#fca311"/></svg>